999
dxflib 3.26.4.0
  0
SECTION
  2
HEADER
  9
$ACADVER
  1
AC1015
  9
$HANDSEED
  5
FFFF
  9
$DIMADEC
 70
0
  9
$DIMASZ
 40
2.5
  9
$DIMATFIT
 70
0
  9
$DIMAUNIT
 70
0
  9
$DIMAZIN
 70
2
  9
$DIMBLK
  1
0
  9
$DIMBLK1
  1
0
  9
$DIMBLK2
  1
0
  9
$DIMDEC
 70
4
  9
$DIMDLI
 40
5.0
  9
$DIMDSEP
 70
46
  9
$DIMEXE
 40
1.25
  9
$DIMEXO
 40
0.625
  9
$DIMGAP
 40
0.625
  9
$DIMLFAC
 40
1.0
  9
$DIMLUNIT
 70
2
  9
$DIMSCALE
 40
1.0
  9
$DIMTAD
 70
1
  9
$DIMTIH
 70
0
  9
$DIMTSZ
 40
0.0
  9
$DIMTXT
 40
2.5
  9
$DIMZIN
 70
8
  9
$DWGCODEPAGE
  3
ANSI_1252
  9
$INSUNITS
 70
6
  9
$LTSCALE
 40
1.0
  9
$MAXACTVP
 70
64
  9
$MEASUREMENT
 70
1
  9
$MIRRTEXT
 70
0
  9
$PDMODE
 70
0
  9
$PDSIZE
 40
0.0
  0
ENDSEC
  0
SECTION
  2
TABLES
  0
TABLE
  2
VPORT
  5
8
100
AcDbSymbolTable
 70
1
  0
VPORT
  5
30
100
AcDbSymbolTableRecord
100
AcDbViewportTableRecord
  2
*Active
 70
0
 10
0.0
 20
0.0
 11
1.0
 21
1.0
 12
286.3055555555554861
 22
148.5
 13
0.0
 23
0.0
 14
10.0
 24
10.0
 15
10.0
 25
10.0
 16
0.0
 26
0.0
 36
1.0
 17
0.0
 27
0.0
 37
0.0
 40
297.0
 41
1.92798353909465
 42
50.0
 43
0.0
 44
0.0
 50
0.0
 51
0.0
 71
0
 72
100
 73
1
 74
3
 75
1
 76
1
 77
0
 78
0
281
0
 65
1
110
0.0
120
0.0
130
0.0
111
1.0
121
0.0
131
0.0
112
0.0
122
1.0
132
0.0
 79
0
146
0.0
  0
ENDTAB
  0
TABLE
  2
LTYPE
  5
5
100
AcDbSymbolTable
 70
41
  0
LTYPE
  5
16
100
AcDbSymbolTableRecord
100
AcDbLinetypeTableRecord
  2
Continuous
 70
0
  3
Solid line
 72
65
 73
0
 40
0.0
  0
LTYPE
  5
31
100
AcDbSymbolTableRecord
100
AcDbLinetypeTableRecord
  2
DIVIDE2
 70
0
  3
Divide (.5x) __..__..__..__..__..__..__..__.._
 72
65
 73
6
 40
15.875
 49
6.3499999999999996
 74
0
 49
-3.1749999999999998
 74
0
 49
0.0
 74
0
 49
-3.1749999999999998
 74
0
 49
0.0
 74
0
 49
-3.1749999999999998
 74
0
  0
LTYPE
  5
32
100
AcDbSymbolTableRecord
100
AcDbLinetypeTableRecord
  2
DOTX2
 70
0
  3
Dot (2x) .  .  .  .  .  .  .  .  .  .  .  .  .  .
 72
65
 73
2
 40
12.6999999999999993
 49
0.0
 74
0
 49
-12.6999999999999993
 74
0
  0
LTYPE
  5
33
100
AcDbSymbolTableRecord
100
AcDbLinetypeTableRecord
  2
ACAD_ISO06W100
 70
0
  3
ISO long-dash triple-dot ____ ... ____ ... ____
 72
65
 73
8
 40
36.0
 49
24.0
 74
0
 49
-3.0
 74
0
 49
0.0
 74
0
 49
-3.0
 74
0
 49
0.0
 74
0
 49
-3.0
 74
0
 49
0.0
 74
0
 49
-3.0
 74
0
  0
LTYPE
  5
34
100
AcDbSymbolTableRecord
100
AcDbLinetypeTableRecord
  2
HIDDENX2
 70
0
  3
Hidden (2x) ____ ____ ____ ____ ____ ____ ____ 
 72
65
 73
2
 40
19.0499999999999972
 49
12.6999999999999993
 74
0
 49
-6.3499999999999996
 74
0
  0
LTYPE
  5
35
100
AcDbSymbolTableRecord
100
AcDbLinetypeTableRecord
  2
DASHEDX2
 70
0
  3
Dashed (2x) ____  ____  ____  ____  ____  ___
 72
65
 73
2
 40
38.0999999999999943
 49
25.3999999999999986
 74
0
 49
-12.6999999999999993
 74
0
  0
LTYPE
  5
36
100
AcDbSymbolTableRecord
100
AcDbLinetypeTableRecord
  2
CENTER
 70
0
  3
Center ____ _ ____ _ ____ _ ____ _ ____ _ ____
 72
65
 73
4
 40
50.8000000000000043
 49
31.75
 74
0
 49
-6.3499999999999996
 74
0
 49
6.3499999999999996
 74
0
 49
-6.3499999999999996
 74
0
  0
LTYPE
  5
37
100
AcDbSymbolTableRecord
100
AcDbLinetypeTableRecord
  2
PHANTOMX2
 70
0
  3
Phantom (2x) ____________    ____    ____   _
 72
65
 73
6
 40
127.0000000000000142
 49
63.5
 74
0
 49
-12.6999999999999993
 74
0
 49
12.6999999999999993
 74
0
 49
-12.6999999999999993
 74
0
 49
12.6999999999999993
 74
0
 49
-12.6999999999999993
 74
0
  0
LTYPE
  5
38
100
AcDbSymbolTableRecord
100
AcDbLinetypeTableRecord
  2
DIVIDEX2
 70
0
  3
Divide (2x) ________  .  .  ________  .  .  _
 72
65
 73
6
 40
63.5
 49
25.3999999999999986
 74
0
 49
-12.6999999999999993
 74
0
 49
0.0
 74
0
 49
-12.6999999999999993
 74
0
 49
0.0
 74
0
 49
-12.6999999999999993
 74
0
  0
LTYPE
  5
39
100
AcDbSymbolTableRecord
100
AcDbLinetypeTableRecord
  2
DASHDOT2
 70
0
  3
Dash dot (.5x) _._._._._._._._._._._._._._._.
 72
65
 73
4
 40
12.6999999999999993
 49
6.3499999999999996
 74
0
 49
-3.1749999999999998
 74
0
 49
0.0
 74
0
 49
-3.1749999999999998
 74
0
  0
LTYPE
  5
3A
100
AcDbSymbolTableRecord
100
AcDbLinetypeTableRecord
  2
CENTER2
 70
0
  3
Center (.5x) ___ _ ___ _ ___ _ ___ _ ___ _ ___
 72
65
 73
4
 40
28.5750000000000028
 49
19.0500000000000007
 74
0
 49
-3.1749999999999998
 74
0
 49
3.1749999999999998
 74
0
 49
-3.1749999999999998
 74
0
  0
LTYPE
  5
3B
100
AcDbSymbolTableRecord
100
AcDbLinetypeTableRecord
  2
DASHDOTX2
 70
0
  3
Dash dot (2x) ____  .  ____  .  ____  .  ___
 72
65
 73
4
 40
50.7999999999999972
 49
25.3999999999999986
 74
0
 49
-12.6999999999999993
 74
0
 49
0.0
 74
0
 49
-12.6999999999999993
 74
0
  0
LTYPE
  5
3C
100
AcDbSymbolTableRecord
100
AcDbLinetypeTableRecord
  2
DASHED
 70
0
  3
Dashed __ __ __ __ __ __ __ __ __ __ __ __ __ _
 72
65
 73
2
 40
19.0499999999999972
 49
12.6999999999999993
 74
0
 49
-6.3499999999999996
 74
0
  0
LTYPE
  5
3D
100
AcDbSymbolTableRecord
100
AcDbLinetypeTableRecord
  2
ACAD_ISO12W100
 70
0
  3
ISO dash double-dot __ . . __ . . __ . . __ . . 
 72
65
 73
6
 40
21.0
 49
12.0
 74
0
 49
-3.0
 74
0
 49
0.0
 74
0
 49
-3.0
 74
0
 49
0.0
 74
0
 49
-3.0
 74
0
  0
LTYPE
  5
3E
100
AcDbSymbolTableRecord
100
AcDbLinetypeTableRecord
  2
DASHDOT
 70
0
  3
Dash dot __ . __ . __ . __ . __ . __ . __ . __
 72
65
 73
4
 40
25.3999999999999986
 49
12.6999999999999993
 74
0
 49
-6.3499999999999996
 74
0
 49
0.0
 74
0
 49
-6.3499999999999996
 74
0
  0
LTYPE
  5
3F
100
AcDbSymbolTableRecord
100
AcDbLinetypeTableRecord
  2
ACAD_ISO03W100
 70
0
  3
ISO dash space __    __    __    __    __    __
 72
65
 73
2
 40
30.0
 49
12.0
 74
0
 49
-18.0
 74
0
  0
LTYPE
  5
40
100
AcDbSymbolTableRecord
100
AcDbLinetypeTableRecord
  2
CENTERX2
 70
0
  3
Center (2x) ________  __  ________  __  _____
 72
65
 73
4
 40
101.6000000000000085
 49
63.5
 74
0
 49
-12.6999999999999993
 74
0
 49
12.6999999999999993
 74
0
 49
-12.6999999999999993
 74
0
  0
LTYPE
  5
41
100
AcDbSymbolTableRecord
100
AcDbLinetypeTableRecord
  2
DOT
 70
0
  3
Dot . . . . . . . . . . . . . . . . . . . . . . . .
 72
65
 73
2
 40
6.3499999999999996
 49
0.0
 74
0
 49
-6.3499999999999996
 74
0
  0
LTYPE
  5
42
100
AcDbSymbolTableRecord
100
AcDbLinetypeTableRecord
  2
PHANTOM
 70
0
  3
Phantom ______  __  __  ______  __  __  ______ 
 72
65
 73
6
 40
63.5000000000000071
 49
31.75
 74
0
 49
-6.3499999999999996
 74
0
 49
6.3499999999999996
 74
0
 49
-6.3499999999999996
 74
0
 49
6.3499999999999996
 74
0
 49
-6.3499999999999996
 74
0
  0
LTYPE
  5
43
100
AcDbSymbolTableRecord
100
AcDbLinetypeTableRecord
  2
HIDDEN
 70
0
  3
Hidden __ __ __ __ __ __ __ __ __ __ __ __ __ __
 72
65
 73
2
 40
9.5249999999999986
 49
6.3499999999999996
 74
0
 49
-3.1749999999999998
 74
0
  0
LTYPE
  5
44
100
AcDbSymbolTableRecord
100
AcDbLinetypeTableRecord
  2
ACAD_ISO10W100
 70
0
  3
ISO dash dot __ . __ . __ . __ . __ . __ . __ . 
 72
65
 73
4
 40
18.0
 49
12.0
 74
0
 49
-3.0
 74
0
 49
0.0
 74
0
 49
-3.0
 74
0
  0
LTYPE
  5
45
100
AcDbSymbolTableRecord
100
AcDbLinetypeTableRecord
  2
ACAD_ISO14W100
 70
0
  3
ISO dash triple-dot __ . . . __ . . . __ . . . _
 72
65
 73
8
 40
24.0
 49
12.0
 74
0
 49
-3.0
 74
0
 49
0.0
 74
0
 49
-3.0
 74
0
 49
0.0
 74
0
 49
-3.0
 74
0
 49
0.0
 74
0
 49
-3.0
 74
0
  0
LTYPE
  5
46
100
AcDbSymbolTableRecord
100
AcDbLinetypeTableRecord
  2
DIVIDE
 70
0
  3
Divide ____ . . ____ . . ____ . . ____ . . ____
 72
65
 73
6
 40
31.75
 49
12.6999999999999993
 74
0
 49
-6.3499999999999996
 74
0
 49
0.0
 74
0
 49
-6.3499999999999996
 74
0
 49
0.0
 74
0
 49
-6.3499999999999996
 74
0
  0
LTYPE
  5
47
100
AcDbSymbolTableRecord
100
AcDbLinetypeTableRecord
  2
ACAD_ISO07W100
 70
0
  3
ISO dot . . . . . . . . . . . . . . . . . . . . 
 72
65
 73
2
 40
3.0
 49
0.0
 74
0
 49
-3.0
 74
0
  0
LTYPE
  5
48
100
AcDbSymbolTableRecord
100
AcDbLinetypeTableRecord
  2
ACAD_ISO11W100
 70
0
  3
ISO double-dash dot __ __ . __ __ . __ __ . __ _
 72
65
 73
6
 40
33.0
 49
12.0
 74
0
 49
-3.0
 74
0
 49
12.0
 74
0
 49
-3.0
 74
0
 49
0.0
 74
0
 49
-3.0
 74
0
  0
LTYPE
  5
49
100
AcDbSymbolTableRecord
100
AcDbLinetypeTableRecord
  2
ACAD_ISO05W100
 70
0
  3
ISO long-dash double-dot ____ .. ____ .. ____ . 
 72
65
 73
6
 40
33.0
 49
24.0
 74
0
 49
-3.0
 74
0
 49
0.0
 74
0
 49
-3.0
 74
0
 49
0.0
 74
0
 49
-3.0
 74
0
  0
LTYPE
  5
4A
100
AcDbSymbolTableRecord
100
AcDbLinetypeTableRecord
  2
BORDER
 70
0
  3
Border __ __ . __ __ . __ __ . __ __ . __ __ .
 72
65
 73
6
 40
44.4499999999999957
 49
12.6999999999999993
 74
0
 49
-6.3499999999999996
 74
0
 49
12.6999999999999993
 74
0
 49
-6.3499999999999996
 74
0
 49
0.0
 74
0
 49
-6.3499999999999996
 74
0
  0
LTYPE
  5
4B
100
AcDbSymbolTableRecord
100
AcDbLinetypeTableRecord
  2
DASHED2
 70
0
  3
Dashed (.5x) _ _ _ _ _ _ _ _ _ _ _ _ _ _ _ _ _ 
 72
65
 73
2
 40
9.5249999999999986
 49
6.3499999999999996
 74
0
 49
-3.1749999999999998
 74
0
  0
LTYPE
  5
4C
100
AcDbSymbolTableRecord
100
AcDbLinetypeTableRecord
  2
ACAD_ISO04W100
 70
0
  3
ISO long-dash dot ____ . ____ . ____ . ____ . _
 72
65
 73
4
 40
30.0
 49
24.0
 74
0
 49
-3.0
 74
0
 49
0.0
 74
0
 49
-3.0
 74
0
  0
LTYPE
  5
15
100
AcDbSymbolTableRecord
100
AcDbLinetypeTableRecord
  2
BYLAYER
 70
0
  3

 72
65
 73
0
 40
0.0
  0
LTYPE
  5
4D
100
AcDbSymbolTableRecord
100
AcDbLinetypeTableRecord
  2
ACAD_ISO02W100
 70
0
  3
ISO dash __ __ __ __ __ __ __ __ __ __ __ __ __
 72
65
 73
2
 40
15.0
 49
12.0
 74
0
 49
-3.0
 74
0
  0
LTYPE
  5
4E
100
AcDbSymbolTableRecord
100
AcDbLinetypeTableRecord
  2
ACAD_ISO15W100
 70
0
  3
ISO double-dash triple-dot __ __ . . . __ __ . .
 72
65
 73
10
 40
39.0
 49
12.0
 74
0
 49
-3.0
 74
0
 49
12.0
 74
0
 49
-3.0
 74
0
 49
0.0
 74
0
 49
-3.0
 74
0
 49
0.0
 74
0
 49
-3.0
 74
0
 49
0.0
 74
0
 49
-3.0
 74
0
  0
LTYPE
  5
4F
100
AcDbSymbolTableRecord
100
AcDbLinetypeTableRecord
  2
ACAD_ISO09W100
 70
0
  3
ISO long-dash double-short-dash ____ __ __ ____
 72
65
 73
6
 40
45.0
 49
24.0
 74
0
 49
-3.0
 74
0
 49
6.0
 74
0
 49
-3.0
 74
0
 49
6.0
 74
0
 49
-3.0
 74
0
  0
LTYPE
  5
50
100
AcDbSymbolTableRecord
100
AcDbLinetypeTableRecord
  2
ACAD_ISO13W100
 70
0
  3
ISO double-dash double-dot __ __ . . __ __ . . _
 72
65
 73
8
 40
36.0
 49
12.0
 74
0
 49
-3.0
 74
0
 49
12.0
 74
0
 49
-3.0
 74
0
 49
0.0
 74
0
 49
-3.0
 74
0
 49
0.0
 74
0
 49
-3.0
 74
0
  0
LTYPE
  5
51
100
AcDbSymbolTableRecord
100
AcDbLinetypeTableRecord
  2
BORDER2
 70
0
  3
Border (.5x) __.__.__.__.__.__.__.__.__.__.__.
 72
65
 73
6
 40
22.2249999999999979
 49
6.3499999999999996
 74
0
 49
-3.1749999999999998
 74
0
 49
6.3499999999999996
 74
0
 49
-3.1749999999999998
 74
0
 49
0.0
 74
0
 49
-3.1749999999999998
 74
0
  0
LTYPE
  5
52
100
AcDbSymbolTableRecord
100
AcDbLinetypeTableRecord
  2
PHANTOM2
 70
0
  3
Phantom (.5x) ___ _ _ ___ _ _ ___ _ _ ___ _ _
 72
65
 73
6
 40
31.7500000000000036
 49
15.875
 74
0
 49
-3.1749999999999998
 74
0
 49
3.1749999999999998
 74
0
 49
-3.1749999999999998
 74
0
 49
3.1749999999999998
 74
0
 49
-3.1749999999999998
 74
0
  0
LTYPE
  5
14
100
AcDbSymbolTableRecord
100
AcDbLinetypeTableRecord
  2
BYBLOCK
 70
0
  3

 72
65
 73
0
 40
0.0
  0
LTYPE
  5
53
100
AcDbSymbolTableRecord
100
AcDbLinetypeTableRecord
  2
BORDERX2
 70
0
  3
Border (2x) ____  ____  .  ____  ____  .  ___
 72
65
 73
6
 40
88.8999999999999915
 49
25.3999999999999986
 74
0
 49
-12.6999999999999993
 74
0
 49
25.3999999999999986
 74
0
 49
-12.6999999999999993
 74
0
 49
0.0
 74
0
 49
-12.6999999999999993
 74
0
  0
LTYPE
  5
54
100
AcDbSymbolTableRecord
100
AcDbLinetypeTableRecord
  2
ACAD_ISO08W100
 70
0
  3
ISO long-dash short-dash ____ __ ____ __ ____ _
 72
65
 73
4
 40
36.0
 49
24.0
 74
0
 49
-3.0
 74
0
 49
6.0
 74
0
 49
-3.0
 74
0
  0
LTYPE
  5
55
100
AcDbSymbolTableRecord
100
AcDbLinetypeTableRecord
  2
DOT2
 70
0
  3
Dot (.5x) ........................................
 72
65
 73
2
 40
3.1749999999999998
 49
0.0
 74
0
 49
-3.1749999999999998
 74
0
  0
LTYPE
  5
56
100
AcDbSymbolTableRecord
100
AcDbLinetypeTableRecord
  2
HIDDEN2
 70
0
  3
Hidden (.5x) _ _ _ _ _ _ _ _ _ _ _ _ _ _ _ _ _ 
 72
65
 73
2
 40
4.7624999999999993
 49
3.1749999999999998
 74
0
 49
-1.5874999999999999
 74
0
  0
ENDTAB
  0
TABLE
  2
LAYER
  5
2
100
AcDbSymbolTable
 70
3
  0
LAYER
  5
57
100
AcDbSymbolTableRecord
100
AcDbLayerTableRecord
  2
Strichpunkt
 70
0
 62
7
420
0
  6
ACAD_ISO10W100
370
25
390
F
  0
LAYER
  5
58
100
AcDbSymbolTableRecord
100
AcDbLayerTableRecord
  2
Dash
 70
0
 62
7
420
0
  6
ACAD_ISO02W100
370
18
390
F
  0
LAYER
  5
10
100
AcDbSymbolTableRecord
100
AcDbLayerTableRecord
  2
0
 70
0
 62
7
420
16777215
  6
Continuous
370
25
390
F
  0
ENDTAB
  0
TABLE
  2
STYLE
  5
3
100
AcDbSymbolTable
 70
1
  0
STYLE
  5
59
100
AcDbSymbolTableRecord
100
AcDbTextStyleTableRecord
  2
Standard
 70
0
 40
0.0
 41
1.0
 50
0.0
 71
0
 42
2.5
  3

  4

1001
ACAD
1000
txt
1071
0
  0
ENDTAB
  0
TABLE
  2
VIEW
  5
6
100
AcDbSymbolTable
 70
0
  0
ENDTAB
  0
TABLE
  2
UCS
  5
7
100
AcDbSymbolTable
 70
0
  0
ENDTAB
  0
TABLE
  2
APPID
  5
9
100
AcDbSymbolTable
 70
1
  0
APPID
  5
12
100
AcDbSymbolTableRecord
100
AcDbRegAppTableRecord
  2
ACAD
 70
0
  0
APPID
  5
5A
100
AcDbSymbolTableRecord
100
AcDbRegAppTableRecord
  2
QCAD
 70
0
  0
ENDTAB
  0
TABLE
  2
DIMSTYLE
  5
A
100
AcDbSymbolTable
 70
1
100
AcDbDimStyleTable
 71
0
  0
DIMSTYLE
105
27
100
AcDbSymbolTableRecord
100
AcDbDimStyleTableRecord
  2
Standard
 41
2.5
 42
0.625
 43
3.75
 44
1.25
 70
0
 73
0
 74
0
 77
1
 78
8
140
2.5
141
2.5
143
0.03937007874016
147
0.625
171
3
172
1
271
2
272
2
274
3
278
44
283
0
284
8
340
59
  0
ENDTAB
  0
TABLE
  2
BLOCK_RECORD
  5
1
100
AcDbSymbolTable
 70
1
  0
BLOCK_RECORD
  5
1F
100
AcDbSymbolTableRecord
100
AcDbBlockTableRecord
  2
*Model_Space
340
22
  0
BLOCK_RECORD
  5
1B
100
AcDbSymbolTableRecord
100
AcDbBlockTableRecord
  2
*Paper_Space
340
1E
  0
BLOCK_RECORD
  5
23
100
AcDbSymbolTableRecord
100
AcDbBlockTableRecord
  2
*Paper_Space0
340
26
  0
ENDTAB
  0
ENDSEC
  0
SECTION
  2
BLOCKS
  0
BLOCK
  5
20
100
AcDbEntity
  8
0
100
AcDbBlockBegin
  2
*Model_Space
 70
0
 10
0.0
 20
0.0
 30
0.0
  3
*Model_Space
  1

  0
ENDBLK
  5
21
100
AcDbEntity
  8
0
100
AcDbBlockEnd
  0
BLOCK
  5
1C
100
AcDbEntity
 67
1
  8
0
100
AcDbBlockBegin
  2
*Paper_Space
 70
0
 10
0.0
 20
0.0
 30
0.0
  3
*Paper_Space
  1

  0
ENDBLK
  5
1D
100
AcDbEntity
 67
1
  8
0
100
AcDbBlockEnd
  0
BLOCK
  5
24
100
AcDbEntity
  8
0
100
AcDbBlockBegin
  2
*Paper_Space0
 70
0
 10
0.0
 20
0.0
 30
0.0
  3
*Paper_Space0
  1

  0
ENDBLK
  5
25
100
AcDbEntity
  8
0
100
AcDbBlockEnd
  0
ENDSEC
  0
SECTION
  2
ENTITIES
  0
LINE
  5
5B
100
AcDbEntity
  8
0
 62
256
370
-1
 48
1.0
  6
BYLAYER
100
AcDbLine
 10
-261.786656345625147
 20
260.3394999999999868
 30
0.0
 11
-261.7545705098312396
 21
260.3394999999999868
 31
0.0
  0
LINE
  5
5C
100
AcDbEntity
  8
0
 62
256
370
-1
 48
1.0
  6
BYLAYER
100
AcDbLine
 10
-261.786656345625147
 20
260.6605000000000132
 30
0.0
 11
-261.7545705098312396
 21
260.6605000000000132
 31
0.0
  0
LINE
  5
5D
100
AcDbEntity
  8
0
 62
256
370
-1
 48
1.0
  6
BYLAYER
100
AcDbLine
 10
-261.4464754446796633
 20
260.3394999999999868
 30
0.0
 11
-261.4397999999999911
 21
260.3394999999999868
 31
0.0
  0
LINE
  5
5E
100
AcDbEntity
  8
0
 62
256
370
-1
 48
1.0
  6
BYLAYER
100
AcDbLine
 10
-261.4464754446796633
 20
260.6605000000000132
 30
0.0
 11
-261.4397999999999911
 21
260.6605000000000132
 31
0.0
  0
LINE
  5
5F
100
AcDbEntity
  8
0
 62
256
370
-1
 48
1.0
  6
BYLAYER
100
AcDbLine
 10
-261.9377999999999815
 20
260.3414999999999964
 30
0.0
 11
-261.9377999999999815
 21
260.3739694830634335
 31
0.0
  0
LINE
  5
60
100
AcDbEntity
  8
0
 62
256
370
-1
 48
1.0
  6
BYLAYER
100
AcDbLine
 10
-261.9377999999999815
 20
260.6585000000000036
 30
0.0
 11
-261.9377999999999815
 21
260.6260305169365665
 31
0.0
  0
LINE
  5
61
100
AcDbEntity
  8
0
 62
256
370
-1
 48
1.0
  6
BYLAYER
100
AcDbLine
 10
-261.4377999999999815
 20
260.3414999999999964
 30
0.0
 11
-261.4377999999999815
 21
260.3739694830634335
 31
0.0
  0
LINE
  5
62
100
AcDbEntity
  8
0
 62
256
370
-1
 48
1.0
  6
BYLAYER
100
AcDbLine
 10
-261.4377999999999815
 20
260.6585000000000036
 30
0.0
 11
-261.4377999999999815
 21
260.6260305169365665
 31
0.0
  0
LINE
  5
63
100
AcDbEntity
  8
0
 62
256
370
-1
 48
1.0
  6
BYLAYER
100
AcDbLine
 10
-261.896002466857567
 20
260.3467499999999859
 30
0.0
 11
-261.8735975331424015
 21
260.3467499999999859
 31
0.0
  0
LINE
  5
64
100
AcDbEntity
  8
0
 62
256
370
-1
 48
1.0
  6
BYLAYER
100
AcDbLine
 10
-261.896002466857567
 20
260.6532500000000141
 30
0.0
 11
-261.8735975331424015
 21
260.6532500000000141
 31
0.0
  0
LINE
  5
65
100
AcDbEntity
  8
0
 62
256
370
-1
 48
1.0
  6
BYLAYER
100
AcDbLine
 10
-261.9132975505523859
 20
260.3404902507722909
 30
0.0
 11
-261.9103106142730439
 21
260.3424589133200584
 31
0.0
  0
LINE
  5
66
100
AcDbEntity
  8
0
 62
256
370
-1
 48
1.0
  6
BYLAYER
100
AcDbLine
 10
-261.9132975505523859
 20
260.6595097492277091
 30
0.0
 11
-261.9103106142730439
 21
260.6575410866799416
 31
0.0
  0
LINE
  5
67
100
AcDbEntity
  8
0
 62
256
370
-1
 48
1.0
  6
BYLAYER
100
AcDbLine
 10
-261.8592893857269246
 20
260.3424589133200584
 30
0.0
 11
-261.8563024494476394
 21
260.3404902507722909
 31
0.0
  0
LINE
  5
68
100
AcDbEntity
  8
0
 62
256
370
-1
 48
1.0
  6
BYLAYER
100
AcDbLine
 10
-261.8592893857269246
 20
260.6575410866799416
 30
0.0
 11
-261.8563024494476394
 21
260.6595097492277091
 31
0.0
  0
ARC
  5
69
100
AcDbEntity
  8
0
 62
256
370
-1
 48
1.0
  6
BYLAYER
100
AcDbCircle
 10
-261.896002466857567
 20
260.3207499999999754
 30
0.0
 40
0.026
100
AcDbArc
 50
90.0
 51
123.3885135761115066
  0
ARC
  5
6A
100
AcDbEntity
  8
0
 62
256
370
-1
 48
1.0
  6
BYLAYER
100
AcDbCircle
 10
-261.896002466857567
 20
260.6792500000000246
 30
0.0
 40
0.026
100
AcDbArc
 50
236.611486423888465
 51
270.0
  0
ARC
  5
6B
100
AcDbEntity
  8
0
 62
256
370
-1
 48
1.0
  6
BYLAYER
100
AcDbCircle
 10
-261.8735975331424015
 20
260.3207499999999754
 30
0.0
 40
0.026
100
AcDbArc
 50
56.6114864238884721
 51
90.0
  0
ARC
  5
6C
100
AcDbEntity
  8
0
 62
256
370
-1
 48
1.0
  6
BYLAYER
100
AcDbCircle
 10
-261.8735975331424015
 20
260.6792500000000246
 30
0.0
 40
0.026
100
AcDbArc
 50
270.0
 51
303.3885135761115635
  0
ARC
  5
6D
100
AcDbEntity
  8
0
 62
256
370
-1
 48
1.0
  6
BYLAYER
100
AcDbCircle
 10
-261.8530005692747977
 20
260.3455000000000155
 30
0.0
 40
0.006
100
AcDbArc
 50
236.611486423888465
 51
270.0
  0
ARC
  5
6E
100
AcDbEntity
  8
0
 62
256
370
-1
 48
1.0
  6
BYLAYER
100
AcDbCircle
 10
-261.8530005692747977
 20
260.6544999999999845
 30
0.0
 40
0.006
100
AcDbArc
 50
90.0000000000000142
 51
123.3885135761115635
  0
LINE
  5
6F
100
AcDbEntity
  8
0
 62
256
370
-1
 48
1.0
  6
BYLAYER
100
AcDbLine
 10
-261.935799999999972
 20
260.3394999999999868
 30
0.0
 11
-261.9165994307251708
 21
260.3394999999999868
 31
0.0
  0
LINE
  5
70
100
AcDbEntity
  8
0
 62
256
370
-1
 48
1.0
  6
BYLAYER
100
AcDbLine
 10
-261.935799999999972
 20
260.6605000000000132
 30
0.0
 11
-261.9165994307251708
 21
260.6605000000000132
 31
0.0
  0
ARC
  5
71
100
AcDbEntity
  8
0
 62
256
370
-1
 48
1.0
  6
BYLAYER
100
AcDbCircle
 10
-261.9165994307251708
 20
260.3455000000000155
 30
0.0
 40
0.006
100
AcDbArc
 50
270.0
 51
303.3885135761114498
  0
ARC
  5
72
100
AcDbEntity
  8
0
 62
256
370
-1
 48
1.0
  6
BYLAYER
100
AcDbCircle
 10
-261.9165994307251708
 20
260.6544999999999845
 30
0.0
 40
0.006
100
AcDbArc
 50
56.6114864238885218
 51
90.0000000000000142
  0
LINE
  5
73
100
AcDbEntity
  8
Dash
 62
256
370
-1
 48
1.0
  6
BYLAYER
100
AcDbLine
 10
-261.9165994307251708
 20
260.3394999999999868
 30
0.0
 11
-261.9148000000000138
 21
260.3394999999999868
 31
0.0
  0
LINE
  5
74
100
AcDbEntity
  8
Dash
 62
256
370
-1
 48
1.0
  6
BYLAYER
100
AcDbLine
 10
-261.9165994307251708
 20
260.6605000000000132
 30
0.0
 11
-261.9148000000000138
 21
260.6605000000000132
 31
0.0
  0
LINE
  5
75
100
AcDbEntity
  8
Dash
 62
256
370
-1
 48
1.0
  6
BYLAYER
100
AcDbLine
 10
-261.8548000000000116
 20
260.3394999999999868
 30
0.0
 11
-261.8530005692747977
 21
260.3394999999999868
 31
0.0
  0
LINE
  5
76
100
AcDbEntity
  8
Dash
 62
256
370
-1
 48
1.0
  6
BYLAYER
100
AcDbLine
 10
-261.8548000000000116
 20
260.6605000000000132
 30
0.0
 11
-261.8530005692747977
 21
260.6605000000000132
 31
0.0
  0
ARC
  5
77
100
AcDbEntity
  8
0
 62
256
370
-1
 48
1.0
  6
BYLAYER
100
AcDbCircle
 10
-261.8094066645195426
 20
260.3390102262893606
 30
0.0
 40
0.018
100
AcDbArc
 50
88.0685610768233147
 51
168.2243150942609873
  0
ARC
  5
78
100
AcDbEntity
  8
0
 62
256
370
-1
 48
1.0
  6
BYLAYER
100
AcDbCircle
 10
-261.8094066645195426
 20
260.6609897737106394
 30
0.0
 40
0.018
100
AcDbArc
 50
191.7756849057390127
 51
271.9314389231766427
  0
ARC
  5
79
100
AcDbEntity
  8
0
 62
256
370
-1
 48
1.0
  6
BYLAYER
100
AcDbCircle
 10
-261.8081933354804391
 20
260.3390102262893606
 30
0.0
 40
0.018
100
AcDbArc
 50
11.7756849057405244
 51
91.9314389231767848
  0
ARC
  5
7A
100
AcDbEntity
  8
0
 62
256
370
-1
 48
1.0
  6
BYLAYER
100
AcDbCircle
 10
-261.8081933354804391
 20
260.6609897737106394
 30
0.0
 40
0.018
100
AcDbArc
 50
268.0685610768232436
 51
348.2243150942594525
  0
ARC
  5
7B
100
AcDbEntity
  8
0
 62
256
370
-1
 48
1.0
  6
BYLAYER
100
AcDbCircle
 10
-261.786656345625147
 20
260.3435000000000059
 30
0.0
 40
0.004
100
AcDbArc
 50
191.775684905740377
 51
270.0
  0
ARC
  5
7C
100
AcDbEntity
  8
0
 62
256
370
-1
 48
1.0
  6
BYLAYER
100
AcDbCircle
 10
-261.786656345625147
 20
260.6564999999999941
 30
0.0
 40
0.004
100
AcDbArc
 50
90.0000000000000142
 51
168.2243150942597083
  0
LINE
  5
7D
100
AcDbEntity
  8
0
 62
256
370
-1
 48
1.0
  6
BYLAYER
100
AcDbLine
 10
-261.8530005692747977
 20
260.3394999999999868
 30
0.0
 11
-261.8309436543748348
 21
260.3394999999999868
 31
0.0
  0
LINE
  5
7E
100
AcDbEntity
  8
0
 62
256
370
-1
 48
1.0
  6
BYLAYER
100
AcDbLine
 10
-261.8530005692747977
 20
260.6605000000000132
 30
0.0
 11
-261.8309436543748348
 21
260.6605000000000132
 31
0.0
  0
ARC
  5
7F
100
AcDbEntity
  8
0
 62
256
370
-1
 48
1.0
  6
BYLAYER
100
AcDbCircle
 10
-261.8309436543748348
 20
260.3435000000000059
 30
0.0
 40
0.004
100
AcDbArc
 50
269.9999999999985789
 51
348.2243150942609873
  0
ARC
  5
80
100
AcDbEntity
  8
0
 62
256
370
-1
 48
1.0
  6
BYLAYER
100
AcDbCircle
 10
-261.8309436543748348
 20
260.6564999999999941
 30
0.0
 40
0.004
100
AcDbArc
 50
11.775684905738995
 51
90.0000000000014353
  0
ARC
  5
81
100
AcDbEntity
  8
0
 62
256
370
-1
 48
1.0
  6
BYLAYER
100
AcDbCircle
 10
-261.7377999999999929
 20
260.3385000000000105
 30
0.0
 40
0.0135
100
AcDbArc
 50
16.6015495990202027
 51
163.3984504009798115
  0
ARC
  5
82
100
AcDbEntity
  8
0
 62
256
370
-1
 48
1.0
  6
BYLAYER
100
AcDbCircle
 10
-261.7377999999999929
 20
260.6614999999999895
 30
0.0
 40
0.0135
100
AcDbArc
 50
196.6015495990202169
 51
343.3984504009797547
  0
ARC
  5
83
100
AcDbEntity
  8
0
 62
256
370
-1
 48
1.0
  6
BYLAYER
100
AcDbCircle
 10
-261.7545705098312396
 20
260.3435000000000059
 30
0.0
 40
0.004
100
AcDbArc
 50
270.0
 51
343.3984504009796979
  0
ARC
  5
84
100
AcDbEntity
  8
0
 62
256
370
-1
 48
1.0
  6
BYLAYER
100
AcDbCircle
 10
-261.7545705098312396
 20
260.6564999999999941
 30
0.0
 40
0.004
100
AcDbArc
 50
16.6015495990203128
 51
90.0000000000000142
  0
ARC
  5
85
100
AcDbEntity
  8
0
 62
256
370
-1
 48
1.0
  6
BYLAYER
100
AcDbCircle
 10
-261.7210294901687462
 20
260.3435000000000059
 30
0.0
 40
0.004
100
AcDbArc
 50
196.6015495990203021
 51
270.0
  0
ARC
  5
86
100
AcDbEntity
  8
0
 62
256
370
-1
 48
1.0
  6
BYLAYER
100
AcDbCircle
 10
-261.7210294901687462
 20
260.6564999999999941
 30
0.0
 40
0.004
100
AcDbArc
 50
90.0000000000000142
 51
163.3984504009797831
  0
LINE
  5
87
100
AcDbEntity
  8
0
 62
256
370
-1
 48
1.0
  6
BYLAYER
100
AcDbLine
 10
-262.0018000000000029
 20
260.3949999999999818
 30
0.0
 11
-261.9658579618842396
 21
260.3949999999999818
 31
0.0
  0
LINE
  5
88
100
AcDbEntity
  8
0
 62
256
370
-1
 48
1.0
  6
BYLAYER
100
AcDbLine
 10
-262.0018000000000029
 20
260.6050000000000182
 30
0.0
 11
-261.9658579618842396
 21
260.6050000000000182
 31
0.0
  0
LINE
  5
89
100
AcDbEntity
  8
0
 62
256
370
-1
 48
1.0
  6
BYLAYER
100
AcDbLine
 10
-261.3737999999999602
 20
260.3949999999999818
 30
0.0
 11
-261.4097420381157235
 21
260.3949999999999818
 31
0.0
  0
LINE
  5
8A
100
AcDbEntity
  8
0
 62
256
370
-1
 48
1.0
  6
BYLAYER
100
AcDbLine
 10
-261.3737999999999602
 20
260.6050000000000182
 30
0.0
 11
-261.4097420381157235
 21
260.6050000000000182
 31
0.0
  0
LINE
  5
8B
100
AcDbEntity
  8
0
 62
256
370
-1
 48
1.0
  6
BYLAYER
100
AcDbLine
 10
-261.963805841024282
 20
260.3946381557246923
 30
0.0
 11
-261.9483276777067999
 21
260.3890045649960143
 31
0.0
  0
LINE
  5
8C
100
AcDbEntity
  8
0
 62
256
370
-1
 48
1.0
  6
BYLAYER
100
AcDbLine
 10
-261.963805841024282
 20
260.6053618442753077
 30
0.0
 11
-261.9483276777067999
 21
260.6109954350039857
 31
0.0
  0
LINE
  5
8D
100
AcDbEntity
  8
0
 62
256
370
-1
 48
1.0
  6
BYLAYER
100
AcDbLine
 10
-261.4117941589756811
 20
260.3946381557246923
 30
0.0
 11
-261.42727232229322
 21
260.3890045649960143
 31
0.0
  0
LINE
  5
8E
100
AcDbEntity
  8
0
 62
256
370
-1
 48
1.0
  6
BYLAYER
100
AcDbLine
 10
-261.4117941589756811
 20
260.6053618442753077
 30
0.0
 11
-261.42727232229322
 21
260.6109954350039857
 31
0.0
  0
LINE
  5
8F
100
AcDbEntity
  8
0
 62
256
370
-1
 48
1.0
  6
BYLAYER
100
AcDbLine
 10
-262.1979999999999791
 20
260.3999999999999773
 30
0.0
 11
-262.0165953489815251
 21
260.3999999999999773
 31
0.0
  0
LINE
  5
90
100
AcDbEntity
  8
0
 62
256
370
-1
 48
1.0
  6
BYLAYER
100
AcDbLine
 10
-262.1979999999999791
 20
260.6000000000000227
 30
0.0
 11
-262.0165953489815251
 21
260.6000000000000227
 31
0.0
  0
LINE
  5
91
100
AcDbEntity
  8
0
 62
256
370
-1
 48
1.0
  6
BYLAYER
100
AcDbLine
 10
-261.177599999999984
 20
260.3999999999999773
 30
0.0
 11
-261.3590046510184379
 21
260.3999999999999773
 31
0.0
  0
LINE
  5
92
100
AcDbEntity
  8
0
 62
256
370
-1
 48
1.0
  6
BYLAYER
100
AcDbLine
 10
-261.177599999999984
 20
260.6000000000000227
 30
0.0
 11
-261.3590046510184379
 21
260.6000000000000227
 31
0.0
  0
LINE
  5
93
100
AcDbEntity
  8
0
 62
256
370
-1
 48
1.0
  6
BYLAYER
100
AcDbLine
 10
-262.0145432281215676
 20
260.3996381557246877
 30
0.0
 11
-262.0018000000000029
 21
260.3949999999999818
 31
0.0
  0
LINE
  5
94
100
AcDbEntity
  8
0
 62
256
370
-1
 48
1.0
  6
BYLAYER
100
AcDbLine
 10
-262.0145432281215676
 20
260.6003618442753123
 30
0.0
 11
-262.0018000000000029
 21
260.6050000000000182
 31
0.0
  0
LINE
  5
95
100
AcDbEntity
  8
0
 62
256
370
-1
 48
1.0
  6
BYLAYER
100
AcDbLine
 10
-261.3610567718783955
 20
260.3996381557246877
 30
0.0
 11
-261.373800000000017
 21
260.3949999999999818
 31
0.0
  0
LINE
  5
96
100
AcDbEntity
  8
0
 62
256
370
-1
 48
1.0
  6
BYLAYER
100
AcDbLine
 10
-261.3610567718783955
 20
260.6003618442753123
 30
0.0
 11
-261.373800000000017
 21
260.6050000000000182
 31
0.0
  0
ARC
  5
97
100
AcDbEntity
  8
0
 62
256
370
-1
 48
1.0
  6
BYLAYER
100
AcDbCircle
 10
-262.0165953489815251
 20
260.3940000000000055
 30
0.0
 40
0.006
100
AcDbArc
 50
70.0000000000000142
 51
90.0
  0
ARC
  5
98
100
AcDbEntity
  8
0
 62
256
370
-1
 48
1.0
  6
BYLAYER
100
AcDbCircle
 10
-262.0165953489815251
 20
260.6059999999999945
 30
0.0
 40
0.006
100
AcDbArc
 50
270.0
 51
289.9999999999999432
  0
ARC
  5
99
100
AcDbEntity
  8
0
 62
256
370
-1
 48
1.0
  6
BYLAYER
100
AcDbCircle
 10
-261.3590046510184379
 20
260.3940000000000055
 30
0.0
 40
0.006
100
AcDbArc
 50
90.0
 51
109.9999999999999858
  0
ARC
  5
9A
100
AcDbEntity
  8
0
 62
256
370
-1
 48
1.0
  6
BYLAYER
100
AcDbCircle
 10
-261.3590046510184379
 20
260.6059999999999945
 30
0.0
 40
0.006
100
AcDbArc
 50
250.0000000000000284
 51
270.0
  0
ARC
  5
9B
100
AcDbEntity
  8
0
 62
256
370
-1
 48
1.0
  6
BYLAYER
100
AcDbCircle
 10
-261.9658579618842396
 20
260.38900000000001
 30
0.0
 40
0.006
100
AcDbArc
 50
69.9999999999999716
 51
89.9999999999999716
  0
ARC
  5
9C
100
AcDbEntity
  8
0
 62
256
370
-1
 48
1.0
  6
BYLAYER
100
AcDbCircle
 10
-261.9658579618842396
 20
260.61099999999999
 30
0.0
 40
0.006
100
AcDbArc
 50
270.0
 51
290.0
  0
ARC
  5
9D
100
AcDbEntity
  8
0
 62
256
370
-1
 48
1.0
  6
BYLAYER
100
AcDbCircle
 10
-261.4097420381157235
 20
260.38900000000001
 30
0.0
 40
0.006
100
AcDbArc
 50
90.0000000000000142
 51
110.0000000000000284
  0
ARC
  5
9E
100
AcDbEntity
  8
0
 62
256
370
-1
 48
1.0
  6
BYLAYER
100
AcDbCircle
 10
-261.4097420381157235
 20
260.61099999999999
 30
0.0
 40
0.006
100
AcDbArc
 50
250.0
 51
270.0
  0
ARC
  5
9F
100
AcDbEntity
  8
0
 62
256
370
-1
 48
1.0
  6
BYLAYER
100
AcDbCircle
 10
-261.9538000000000011
 20
260.3739694830634335
 30
0.0
 40
0.016
100
AcDbArc
 50
0.0
 51
70.0000000000000142
  0
ARC
  5
A0
100
AcDbEntity
  8
0
 62
256
370
-1
 48
1.0
  6
BYLAYER
100
AcDbCircle
 10
-261.9538000000000011
 20
260.6260305169365665
 30
0.0
 40
0.016
100
AcDbArc
 50
289.9999999999999432
 51
0.0
  0
ARC
  5
A1
100
AcDbEntity
  8
0
 62
256
370
-1
 48
1.0
  6
BYLAYER
100
AcDbCircle
 10
-261.421799999999962
 20
260.3739694830634335
 30
0.0
 40
0.016
100
AcDbArc
 50
109.9999999999999716
 51
180.0
  0
ARC
  5
A2
100
AcDbEntity
  8
0
 62
256
370
-1
 48
1.0
  6
BYLAYER
100
AcDbCircle
 10
-261.421799999999962
 20
260.6260305169365665
 30
0.0
 40
0.016
100
AcDbArc
 50
180.0
 51
250.0000000000000284
  0
LINE
  5
A3
100
AcDbEntity
  8
0
 62
256
370
-1
 48
1.0
  6
BYLAYER
100
AcDbLine
 10
-262.1999999999999886
 20
260.4019999999999868
 30
0.0
 11
-262.1999999999999886
 21
260.5
 31
0.0
  0
LINE
  5
A4
100
AcDbEntity
  8
0
 62
256
370
-1
 48
1.0
  6
BYLAYER
100
AcDbLine
 10
-262.1999999999999886
 20
260.5980000000000132
 30
0.0
 11
-262.1999999999999886
 21
260.5
 31
0.0
  0
LINE
  5
A5
100
AcDbEntity
  8
0
 62
256
370
-1
 48
1.0
  6
BYLAYER
100
AcDbLine
 10
-261.1755999999999744
 20
260.4019999999999868
 30
0.0
 11
-261.1755999999999744
 21
260.5
 31
0.0
  0
LINE
  5
A6
100
AcDbEntity
  8
0
 62
256
370
-1
 48
1.0
  6
BYLAYER
100
AcDbLine
 10
-261.1755999999999744
 20
260.5980000000000132
 30
0.0
 11
-261.1755999999999744
 21
260.5
 31
0.0
  0
LINE
  5
A7
100
AcDbEntity
  8
0
 62
256
370
-1
 48
1.0
  6
BYLAYER
100
AcDbLine
 10
-262.1999999999999886
 20
260.4019999999999868
 30
0.0
 11
-262.1979999999999791
 21
260.3999999999999773
 31
0.0
  0
LINE
  5
A8
100
AcDbEntity
  8
0
 62
256
370
-1
 48
1.0
  6
BYLAYER
100
AcDbLine
 10
-262.1999999999999886
 20
260.5980000000000132
 30
0.0
 11
-262.1979999999999791
 21
260.6000000000000227
 31
0.0
  0
LINE
  5
A9
100
AcDbEntity
  8
0
 62
256
370
-1
 48
1.0
  6
BYLAYER
100
AcDbLine
 10
-261.1755999999999744
 20
260.4019999999999868
 30
0.0
 11
-261.177599999999984
 21
260.3999999999999773
 31
0.0
  0
LINE
  5
AA
100
AcDbEntity
  8
0
 62
256
370
-1
 48
1.0
  6
BYLAYER
100
AcDbLine
 10
-261.1755999999999744
 20
260.5980000000000132
 30
0.0
 11
-261.177599999999984
 21
260.6000000000000227
 31
0.0
  0
ARC
  5
AB
100
AcDbEntity
  8
0
 62
256
370
-1
 48
1.0
  6
BYLAYER
100
AcDbCircle
 10
-261.6757999999999811
 20
260.3055023874999847
 30
0.0
 40
0.0379976124999997
100
AcDbArc
 50
65.3793442154101001
 51
114.6206557845899141
  0
ARC
  5
AC
100
AcDbEntity
  8
0
 62
256
370
-1
 48
1.0
  6
BYLAYER
100
AcDbCircle
 10
-261.6757999999999811
 20
260.6944976125000153
 30
0.0
 40
0.0379976124999997
100
AcDbArc
 50
245.3793442154101001
 51
294.6206557845898715
  0
ARC
  5
AD
100
AcDbEntity
  8
0
 62
256
370
-1
 48
1.0
  6
BYLAYER
100
AcDbCircle
 10
-261.6574702182227838
 20
260.3455000000000155
 30
0.0
 40
0.006
100
AcDbArc
 50
245.3793442154101001
 51
270.0
  0
ARC
  5
AE
100
AcDbEntity
  8
0
 62
256
370
-1
 48
1.0
  6
BYLAYER
100
AcDbCircle
 10
-261.6574702182227838
 20
260.6544999999999845
 30
0.0
 40
0.006
100
AcDbArc
 50
90.0000000000000142
 51
114.6206557845899141
  0
LINE
  5
AF
100
AcDbEntity
  8
0
 62
256
370
-1
 48
1.0
  6
BYLAYER
100
AcDbLine
 10
-261.7210294901687462
 20
260.3394999999999868
 30
0.0
 11
-261.6941297817771783
 21
260.3394999999999868
 31
0.0
  0
LINE
  5
B0
100
AcDbEntity
  8
0
 62
256
370
-1
 48
1.0
  6
BYLAYER
100
AcDbLine
 10
-261.7210294901687462
 20
260.6605000000000132
 30
0.0
 11
-261.6941297817771783
 21
260.6605000000000132
 31
0.0
  0
ARC
  5
B1
100
AcDbEntity
  8
0
 62
256
370
-1
 48
1.0
  6
BYLAYER
100
AcDbCircle
 10
-261.6941297817771783
 20
260.3455000000000155
 30
0.0
 40
0.006
100
AcDbArc
 50
270.0
 51
294.6206557845898146
  0
ARC
  5
B2
100
AcDbEntity
  8
0
 62
256
370
-1
 48
1.0
  6
BYLAYER
100
AcDbCircle
 10
-261.6941297817771783
 20
260.6544999999999845
 30
0.0
 40
0.006
100
AcDbArc
 50
65.3793442154101854
 51
90.0000000000000142
  0
ARC
  5
B3
100
AcDbEntity
  8
0
 62
256
370
-1
 48
1.0
  6
BYLAYER
100
AcDbCircle
 10
-261.6197999999999979
 20
260.3385000000000105
 30
0.0
 40
0.01
100
AcDbArc
 50
17.9202131393922457
 51
162.079786860607669
  0
ARC
  5
B4
100
AcDbEntity
  8
0
 62
256
370
-1
 48
1.0
  6
BYLAYER
100
AcDbCircle
 10
-261.6197999999999979
 20
260.6614999999999895
 30
0.0
 40
0.01
100
AcDbArc
 50
197.9202131393923025
 51
342.0797868606077259
  0
ARC
  5
B5
100
AcDbEntity
  8
0
 62
256
370
-1
 48
1.0
  6
BYLAYER
100
AcDbCircle
 10
-261.6074306831231411
 20
260.3424999999999727
 30
0.0
 40
0.003
100
AcDbArc
 50
197.9202131393921889
 51
270.0
  0
ARC
  5
B6
100
AcDbEntity
  8
0
 62
256
370
-1
 48
1.0
  6
BYLAYER
100
AcDbCircle
 10
-261.6074306831231411
 20
260.6575000000000273
 30
0.0
 40
0.003
100
AcDbArc
 50
90.0000000000000142
 51
162.0797868606078396
  0
LINE
  5
B7
100
AcDbEntity
  8
0
 62
256
370
-1
 48
1.0
  6
BYLAYER
100
AcDbLine
 10
-261.6574702182227838
 20
260.3394999999999868
 30
0.0
 11
-261.6321693168768547
 21
260.3394999999999868
 31
0.0
  0
LINE
  5
B8
100
AcDbEntity
  8
0
 62
256
370
-1
 48
1.0
  6
BYLAYER
100
AcDbLine
 10
-261.6574702182227838
 20
260.6605000000000132
 30
0.0
 11
-261.6321693168768547
 21
260.6605000000000132
 31
0.0
  0
ARC
  5
B9
100
AcDbEntity
  8
0
 62
256
370
-1
 48
1.0
  6
BYLAYER
100
AcDbCircle
 10
-261.6321693168768547
 20
260.3424999999999727
 30
0.0
 40
0.003
100
AcDbArc
 50
270.0
 51
342.0797868606077259
  0
ARC
  5
BA
100
AcDbEntity
  8
0
 62
256
370
-1
 48
1.0
  6
BYLAYER
100
AcDbCircle
 10
-261.6321693168768547
 20
260.6575000000000273
 30
0.0
 40
0.003
100
AcDbArc
 50
17.9202131393922848
 51
90.0000000000000142
  0
ARC
  5
BB
100
AcDbEntity
  8
0
 62
256
370
-1
 48
1.0
  6
BYLAYER
100
AcDbCircle
 10
-261.560799999999972
 20
260.3385000000000105
 30
0.0
 40
0.0075
100
AcDbArc
 50
18.4084801705857544
 51
161.5915198294142954
  0
ARC
  5
BC
100
AcDbEntity
  8
0
 62
256
370
-1
 48
1.0
  6
BYLAYER
100
AcDbCircle
 10
-261.560799999999972
 20
260.6614999999999895
 30
0.0
 40
0.0075
100
AcDbArc
 50
198.4084801705857046
 51
341.591519829414267
  0
ARC
  5
BD
100
AcDbEntity
  8
0
 62
256
370
-1
 48
1.0
  6
BYLAYER
100
AcDbCircle
 10
-261.5517861218113467
 20
260.3414999999999964
 30
0.0
 40
0.002
100
AcDbArc
 50
198.4084801705860173
 51
270.0
  0
ARC
  5
BE
100
AcDbEntity
  8
0
 62
256
370
-1
 48
1.0
  6
BYLAYER
100
AcDbCircle
 10
-261.5517861218113467
 20
260.6585000000000036
 30
0.0
 40
0.002
100
AcDbArc
 50
90.0000000000000142
 51
161.5915198294140396
  0
LINE
  5
BF
100
AcDbEntity
  8
0
 62
256
370
-1
 48
1.0
  6
BYLAYER
100
AcDbLine
 10
-261.6074306831231411
 20
260.3394999999999868
 30
0.0
 11
-261.5698138781886541
 21
260.3394999999999868
 31
0.0
  0
LINE
  5
C0
100
AcDbEntity
  8
0
 62
256
370
-1
 48
1.0
  6
BYLAYER
100
AcDbLine
 10
-261.6074306831231411
 20
260.6605000000000132
 30
0.0
 11
-261.5698138781886541
 21
260.6605000000000132
 31
0.0
  0
ARC
  5
C1
100
AcDbEntity
  8
0
 62
256
370
-1
 48
1.0
  6
BYLAYER
100
AcDbCircle
 10
-261.5698138781886541
 20
260.3414999999999964
 30
0.0
 40
0.002
100
AcDbArc
 50
270.0
 51
341.5915198294139827
  0
ARC
  5
C2
100
AcDbEntity
  8
0
 62
256
370
-1
 48
1.0
  6
BYLAYER
100
AcDbCircle
 10
-261.5698138781886541
 20
260.6585000000000036
 30
0.0
 40
0.002
100
AcDbArc
 50
18.4084801705860563
 51
90.0000000000000142
  0
ARC
  5
C3
100
AcDbEntity
  8
0
 62
256
370
-1
 48
1.0
  6
BYLAYER
100
AcDbCircle
 10
-261.5067999999999984
 20
260.3270071107143053
 30
0.0
 40
0.0159928892857145
100
AcDbArc
 50
57.2307968633281874
 51
122.7692031366717913
  0
ARC
  5
C4
100
AcDbEntity
  8
0
 62
256
370
-1
 48
1.0
  6
BYLAYER
100
AcDbCircle
 10
-261.5067999999999984
 20
260.6729928892856947
 30
0.0
 40
0.0159928892857145
100
AcDbArc
 50
237.2307968633281803
 51
302.7692031366718197
  0
ARC
  5
C5
100
AcDbEntity
  8
0
 62
256
370
-1
 48
1.0
  6
BYLAYER
100
AcDbCircle
 10
-261.4948962096372611
 20
260.3455000000000155
 30
0.0
 40
0.006
100
AcDbArc
 50
237.2307968633282655
 51
270.0
  0
ARC
  5
C6
100
AcDbEntity
  8
0
 62
256
370
-1
 48
1.0
  6
BYLAYER
100
AcDbCircle
 10
-261.4948962096372611
 20
260.6544999999999845
 30
0.0
 40
0.006
100
AcDbArc
 50
90.0000000000000142
 51
122.769203136671706
  0
LINE
  5
C7
100
AcDbEntity
  8
0
 62
256
370
-1
 48
1.0
  6
BYLAYER
100
AcDbLine
 10
-261.5517861218113467
 20
260.3394999999999868
 30
0.0
 11
-261.5187037903627356
 21
260.3394999999999868
 31
0.0
  0
LINE
  5
C8
100
AcDbEntity
  8
0
 62
256
370
-1
 48
1.0
  6
BYLAYER
100
AcDbLine
 10
-261.5517861218113467
 20
260.6605000000000132
 30
0.0
 11
-261.5187037903627356
 21
260.6605000000000132
 31
0.0
  0
ARC
  5
C9
100
AcDbEntity
  8
0
 62
256
370
-1
 48
1.0
  6
BYLAYER
100
AcDbCircle
 10
-261.5187037903627356
 20
260.3455000000000155
 30
0.0
 40
0.006
100
AcDbArc
 50
270.0
 51
302.7692031366717629
  0
ARC
  5
CA
100
AcDbEntity
  8
0
 62
256
370
-1
 48
1.0
  6
BYLAYER
100
AcDbCircle
 10
-261.5187037903627356
 20
260.6544999999999845
 30
0.0
 40
0.006
100
AcDbArc
 50
57.2307968633282513
 51
90.0000000000000142
  0
ARC
  5
CB
100
AcDbEntity
  8
0
 62
256
370
-1
 48
1.0
  6
BYLAYER
100
AcDbCircle
 10
-261.4527999999999679
 20
260.3385000000000105
 30
0.0
 40
0.006
100
AcDbArc
 50
13.3423637970882947
 51
166.6576362029115899
  0
ARC
  5
CC
100
AcDbEntity
  8
0
 62
256
370
-1
 48
1.0
  6
BYLAYER
100
AcDbCircle
 10
-261.4527999999999679
 20
260.6614999999999895
 30
0.0
 40
0.006
100
AcDbArc
 50
193.3423637970896038
 51
346.6576362029116467
  0
ARC
  5
CD
100
AcDbEntity
  8
0
 62
256
370
-1
 48
1.0
  6
BYLAYER
100
AcDbCircle
 10
-261.4464754446796633
 20
260.339999999999975
 30
0.0
 40
0.0005
100
AcDbArc
 50
193.3423637970878985
 51
270.0
  0
ARC
  5
CE
100
AcDbEntity
  8
0
 62
256
370
-1
 48
1.0
  6
BYLAYER
100
AcDbCircle
 10
-261.4464754446796633
 20
260.660000000000025
 30
0.0
 40
0.0005
100
AcDbArc
 50
90.0000000000000142
 51
166.6576362029121015
  0
LINE
  5
CF
100
AcDbEntity
  8
0
 62
256
370
-1
 48
1.0
  6
BYLAYER
100
AcDbLine
 10
-261.4948962096372611
 20
260.3394999999999868
 30
0.0
 11
-261.4591245553203294
 21
260.3394999999999868
 31
0.0
  0
LINE
  5
D0
100
AcDbEntity
  8
0
 62
256
370
-1
 48
1.0
  6
BYLAYER
100
AcDbLine
 10
-261.4948962096372611
 20
260.6605000000000132
 30
0.0
 11
-261.4591245553203294
 21
260.6605000000000132
 31
0.0
  0
ARC
  5
D1
100
AcDbEntity
  8
0
 62
256
370
-1
 48
1.0
  6
BYLAYER
100
AcDbCircle
 10
-261.4591245553203294
 20
260.339999999999975
 30
0.0
 40
0.0005
100
AcDbArc
 50
270.0
 51
346.6576362029122151
  0
LINE
  5
D2
100
AcDbEntity
  8
0
 62
256
370
-1
 48
1.0
  6
BYLAYER
100
AcDbLine
 10
-261.9377999999999815
 20
260.3414999999999964
 30
0.0
 11
-261.935799999999972
 21
260.3394999999999868
 31
0.0
  0
LINE
  5
D3
100
AcDbEntity
  8
0
 62
256
370
-1
 48
1.0
  6
BYLAYER
100
AcDbLine
 10
-261.4397999999999911
 20
260.3394999999999868
 30
0.0
 11
-261.4377999999999815
 21
260.3414999999999964
 31
0.0
  0
LINE
  5
D4
100
AcDbEntity
  8
0
 62
256
370
-1
 48
1.0
  6
BYLAYER
100
AcDbLine
 10
-261.4397999999999911
 20
260.6605000000000132
 30
0.0
 11
-261.4377999999999815
 21
260.6585000000000036
 31
0.0
  0
LINE
  5
D5
100
AcDbEntity
  8
0
 62
256
370
-1
 48
1.0
  6
BYLAYER
100
AcDbLine
 10
-261.9377999999999815
 20
260.6585000000000036
 30
0.0
 11
-261.935799999999972
 21
260.6605000000000132
 31
0.0
  0
ARC
  5
D6
100
AcDbEntity
  8
0
 62
256
370
-1
 48
1.0
  6
BYLAYER
100
AcDbCircle
 10
-261.4591245553203294
 20
260.660000000000025
 30
0.0
 40
0.0005
100
AcDbArc
 50
13.3423637970925668
 51
90.0
  0
ENDSEC
  0
SECTION
  2
OBJECTS
  0
DICTIONARY
  5
C
100
AcDbDictionary
280
0
281
1
  3
ACAD_GROUP
350
D
  3
ACAD_LAYOUT
350
1A
  3
ACAD_MLINESTYLE
350
17
  3
ACAD_PLOTSETTINGS
350
19
  3
ACAD_PLOTSTYLENAME
350
E
  3
AcDbVariableDictionary
350
D7
  3
QCAD_OBJECTS
350
D8
  0
DICTIONARY
  5
D
100
AcDbDictionary
280
0
281
1
  0
ACDBDICTIONARYWDFLT
  5
E
100
AcDbDictionary
281
1
  3
Normal
350
F
100
AcDbDictionaryWithDefault
340
F
  0
ACDBPLACEHOLDER
  5
F
  0
DICTIONARY
  5
17
100
AcDbDictionary
280
0
281
1
  3
Standard
350
18
  0
MLINESTYLE
  5
18
100
AcDbMlineStyle
  2
STANDARD
 70
0
  3

 62
256
 51
90.0
 52
90.0
 71
2
 49
0.5
 62
256
  6
BYLAYER
 49
-0.5
 62
256
  6
BYLAYER
  0
DICTIONARY
  5
19
100
AcDbDictionary
280
0
281
1
  0
DICTIONARY
  5
1A
100
AcDbDictionary
281
1
  3
Layout1
350
1E
  3
Layout2
350
26
  3
Model
350
22
  0
LAYOUT
  5
1E
100
AcDbPlotSettings
  1

  2
none_device
  4

  6

 40
0.0
 41
0.0
 42
0.0
 43
0.0
 44
0.0
 45
0.0
 46
0.0
 47
0.0
 48
0.0
 49
0.0
140
0.0
141
0.0
142
1.0
143
1.0
 70
688
 72
0
 73
0
 74
5
  7

 75
16
147
1.0
148
0.0
149
0.0
100
AcDbLayout
  1
Layout1
 70
1
 71
1
 10
0.0
 20
0.0
 11
420.0
 21
297.0
 12
0.0
 22
0.0
 32
0.0
 14
100000000000000000000.0
 24
100000000000000000000.0
 34
100000000000000000000.0
 15
-100000000000000000000.0
 25
-100000000000000000000.0
 35
-100000000000000000000.0
146
0.0
 13
0.0
 23
0.0
 33
0.0
 16
1.0
 26
0.0
 36
0.0
 17
0.0
 27
1.0
 37
0.0
 76
0
330
1B
  0
LAYOUT
  5
22
100
AcDbPlotSettings
  1

  2
none_device
  4

  6

 40
0.0
 41
0.0
 42
0.0
 43
0.0
 44
0.0
 45
0.0
 46
0.0
 47
0.0
 48
0.0
 49
0.0
140
0.0
141
0.0
142
1.0
143
1.0
 70
1712
 72
0
 73
0
 74
0
  7

 75
0
147
1.0
148
0.0
149
0.0
100
AcDbLayout
  1
Model
 70
1
 71
0
 10
0.0
 20
0.0
 11
12.0
 21
9.0
 12
0.0
 22
0.0
 32
0.0
 14
0.0
 24
0.0
 34
0.0
 15
0.0
 25
0.0
 35
0.0
146
0.0
 13
0.0
 23
0.0
 33
0.0
 16
1.0
 26
0.0
 36
0.0
 17
0.0
 27
1.0
 37
0.0
 76
0
330
1F
  0
LAYOUT
  5
26
100
AcDbPlotSettings
  1

  2
none_device
  4

  6

 40
0.0
 41
0.0
 42
0.0
 43
0.0
 44
0.0
 45
0.0
 46
0.0
 47
0.0
 48
0.0
 49
0.0
140
0.0
141
0.0
142
1.0
143
1.0
 70
688
 72
0
 73
0
 74
5
  7

 75
16
147
1.0
148
0.0
149
0.0
100
AcDbLayout
  1
Layout2
 70
1
 71
2
 10
0.0
 20
0.0
 11
12.0
 21
9.0
 12
0.0
 22
0.0
 32
0.0
 14
0.0
 24
0.0
 34
0.0
 15
0.0
 25
0.0
 35
0.0
146
0.0
 13
0.0
 23
0.0
 33
0.0
 16
1.0
 26
0.0
 36
0.0
 17
0.0
 27
1.0
 37
0.0
 76
0
330
23
  0
DICTIONARY
  5
D7
100
AcDbDictionary
281
1
  3
DIMASSOC
350
DA
  3
HIDETEXT
350
D9
  0
DICTIONARYVAR
  5
D9
100
DictionaryVariables
280
0
  1
2
  0
DICTIONARYVAR
  5
DA
100
DictionaryVariables
280
0
  1
1
  0
DICTIONARY
  5
D8
100
AcDbDictionary
281
1
  3
ColorSettings/BackgroundColor
350
DB
  3
ColorSettings/ColorMode
350
DC
  3
Grid/DisplayGrid00
350
DD
  3
Grid/DisplayGrid01
350
DE
  3
Grid/DisplayGrid02
350
DF
  3
Grid/DisplayGrid03
350
E0
  3
Grid/GridSpacingX00
350
E1
  3
Grid/GridSpacingX01
350
E2
  3
Grid/GridSpacingX02
350
E3
  3
Grid/GridSpacingX03
350
E4
  3
Grid/GridSpacingY00
350
E5
  3
Grid/GridSpacingY01
350
E6
  3
Grid/GridSpacingY02
350
E7
  3
Grid/GridSpacingY03
350
E8
  3
Grid/IsometricGrid00
350
E9
  3
Grid/IsometricGrid01
350
EA
  3
Grid/IsometricGrid02
350
EB
  3
Grid/IsometricGrid03
350
EC
  3
Grid/IsometricProjection00
350
ED
  3
Grid/IsometricProjection01
350
EE
  3
Grid/IsometricProjection02
350
EF
  3
Grid/IsometricProjection03
350
F0
  3
Grid/MetaGridSpacingX00
350
F1
  3
Grid/MetaGridSpacingX01
350
F2
  3
Grid/MetaGridSpacingX02
350
F3
  3
Grid/MetaGridSpacingX03
350
F4
  3
Grid/MetaGridSpacingY00
350
F5
  3
Grid/MetaGridSpacingY01
350
F6
  3
Grid/MetaGridSpacingY02
350
F7
  3
Grid/MetaGridSpacingY03
350
F8
  3
LinetypeSettings/PSLTSCALE
350
F9
  3
MultiPageSettings/Columns
350
FA
  3
MultiPageSettings/GlueMarginsBottom
350
FB
  3
MultiPageSettings/GlueMarginsLeft
350
FC
  3
MultiPageSettings/GlueMarginsRight
350
FD
  3
MultiPageSettings/GlueMarginsTop
350
FE
  3
MultiPageSettings/PrintCropMarks
350
FF
  3
MultiPageSettings/Rows
350
100
  3
PageSettings/OffsetX
350
101
  3
PageSettings/OffsetY
350
102
  3
PageSettings/PageOrientation
350
103
  3
PageSettings/PaperHeight
350
104
  3
PageSettings/PaperSizeName
350
105
  3
PageSettings/PaperWidth
350
106
  3
PageSettings/PointSize
350
107
  3
PageSettings/Scale
350
108
  3
PageSettings/ShowPaperBorders
350
109
  3
PageTagSettings/EnablePageTags
350
10A
  3
PageTagSettings/TagAlignment
350
10B
  3
PageTagSettings/TagFont
350
10C
  3
PageTagSettings/TagPosition
350
10D
  3
QCADVersion
350
10E
  3
UnitSettings/Measurement
350
10F
  3
UnitSettings/PaperUnit
350
110
  3
ViewportCenter
350
111
  3
ViewportHeight
350
112
  3
ViewportWidth
350
113
  0
XRECORD
  5
DB
330
D8
100
AcDbXrecord
280
1
1000
White
  0
XRECORD
  5
DC
330
D8
100
AcDbXrecord
280
1
1000
FullColor
  0
XRECORD
  5
DD
330
D8
100
AcDbXrecord
280
1
290
1
  0
XRECORD
  5
DE
330
D8
100
AcDbXrecord
280
1
290
1
  0
XRECORD
  5
DF
330
D8
100
AcDbXrecord
280
1
290
1
  0
XRECORD
  5
E0
330
D8
100
AcDbXrecord
280
1
290
1
  0
XRECORD
  5
E1
330
D8
100
AcDbXrecord
280
1
1000
auto
  0
XRECORD
  5
E2
330
D8
100
AcDbXrecord
280
1
1000
auto
  0
XRECORD
  5
E3
330
D8
100
AcDbXrecord
280
1
1000
auto
  0
XRECORD
  5
E4
330
D8
100
AcDbXrecord
280
1
1000
auto
  0
XRECORD
  5
E5
330
D8
100
AcDbXrecord
280
1
1000
auto
  0
XRECORD
  5
E6
330
D8
100
AcDbXrecord
280
1
1000
auto
  0
XRECORD
  5
E7
330
D8
100
AcDbXrecord
280
1
1000
auto
  0
XRECORD
  5
E8
330
D8
100
AcDbXrecord
280
1
1000
auto
  0
XRECORD
  5
E9
330
D8
100
AcDbXrecord
280
1
290
0
  0
XRECORD
  5
EA
330
D8
100
AcDbXrecord
280
1
290
0
  0
XRECORD
  5
EB
330
D8
100
AcDbXrecord
280
1
290
0
  0
XRECORD
  5
EC
330
D8
100
AcDbXrecord
280
1
290
0
  0
XRECORD
  5
ED
330
D8
100
AcDbXrecord
280
1
 90
65537
  0
XRECORD
  5
EE
330
D8
100
AcDbXrecord
280
1
 90
65537
  0
XRECORD
  5
EF
330
D8
100
AcDbXrecord
280
1
 90
65537
  0
XRECORD
  5
F0
330
D8
100
AcDbXrecord
280
1
 90
65537
  0
XRECORD
  5
F1
330
D8
100
AcDbXrecord
280
1
1000
auto
  0
XRECORD
  5
F2
330
D8
100
AcDbXrecord
280
1
1000
auto
  0
XRECORD
  5
F3
330
D8
100
AcDbXrecord
280
1
1000
auto
  0
XRECORD
  5
F4
330
D8
100
AcDbXrecord
280
1
1000
auto
  0
XRECORD
  5
F5
330
D8
100
AcDbXrecord
280
1
1000
auto
  0
XRECORD
  5
F6
330
D8
100
AcDbXrecord
280
1
1000
auto
  0
XRECORD
  5
F7
330
D8
100
AcDbXrecord
280
1
1000
auto
  0
XRECORD
  5
F8
330
D8
100
AcDbXrecord
280
1
1000
auto
  0
XRECORD
  5
F9
330
D8
100
AcDbXrecord
280
1
290
0
  0
XRECORD
  5
FA
330
D8
100
AcDbXrecord
280
1
 90
1
  0
XRECORD
  5
FB
330
D8
100
AcDbXrecord
280
1
 40
10.0
  0
XRECORD
  5
FC
330
D8
100
AcDbXrecord
280
1
 40
10.0
  0
XRECORD
  5
FD
330
D8
100
AcDbXrecord
280
1
 40
10.0
  0
XRECORD
  5
FE
330
D8
100
AcDbXrecord
280
1
 40
10.0
  0
XRECORD
  5
FF
330
D8
100
AcDbXrecord
280
1
290
0
  0
XRECORD
  5
100
330
D8
100
AcDbXrecord
280
1
 90
1
  0
XRECORD
  5
101
330
D8
100
AcDbXrecord
280
1
 40
0.0
  0
XRECORD
  5
102
330
D8
100
AcDbXrecord
280
1
 40
0.0
  0
XRECORD
  5
103
330
D8
100
AcDbXrecord
280
1
1000
Portrait
  0
XRECORD
  5
104
330
D8
100
AcDbXrecord
280
1
 40
297.0
  0
XRECORD
  5
105
330
D8
100
AcDbXrecord
280
1
1000
Custom
  0
XRECORD
  5
106
330
D8
100
AcDbXrecord
280
1
 40
210.0
  0
XRECORD
  5
107
330
D8
100
AcDbXrecord
280
1
1000
0.5
  0
XRECORD
  5
108
330
D8
100
AcDbXrecord
280
1
1000
1:1
  0
XRECORD
  5
109
330
D8
100
AcDbXrecord
280
1
290
1
  0
XRECORD
  5
10A
330
D8
100
AcDbXrecord
280
1
290
0
  0
XRECORD
  5
10B
330
D8
100
AcDbXrecord
280
1
1000
Inside
  0
XRECORD
  5
10C
330
D8
100
AcDbXrecord
280
1
1000
Arial,10,-1,5,50,0,0,0,0,0
  0
XRECORD
  5
10D
330
D8
100
AcDbXrecord
280
1
1000
TopLeft
  0
XRECORD
  5
10E
330
D8
100
AcDbXrecord
280
1
1000
3.27.6.7
  0
XRECORD
  5
10F
330
D8
100
AcDbXrecord
280
1
 90
1
  0
XRECORD
  5
110
330
D8
100
AcDbXrecord
280
1
 90
6
  0
XRECORD
  5
112
330
D8
100
AcDbXrecord
280
1
 40
0.7517164087795436
  0
XRECORD
  5
113
330
D8
100
AcDbXrecord
280
1
 40
1.4991495331785814
  0
ENDSEC
  0
EOF
